<?xml version="1.0" encoding="UTF-8"?>
<svg id="_レイヤー_1" data-name="レイヤー 1" xmlns="http://www.w3.org/2000/svg" viewBox="0 0 322.26 322.26">
  <defs>
    <style>
      .cls-1 {
        fill: #2c3e50;
      }
    </style>
  </defs>
  <path class="cls-1" d="M253.16,92.81l2.05-17.43h-67.94l-11.71,27.49c-1.45-5.92-4.28-12.33-9.82-18.01-10-10.25-23.07-12.31-33.07-12.31-12.05,0-25.64,2.82-36.66,14.1-5.64,5.9-13.84,17.95-13.84,37.94,0,6.41,1.03,13.33,5.13,20.25,2.31,4.1,6.15,8.46,11.28,11.79-8.46,2.82-16.92,8.46-22.3,15.64-6.15,8.2-9.23,20.51-9.23,30.25,0,12.3,3.85,25.12,12.31,33.84,10.51,11.02,24.61,13.33,36.4,13.33,10.56,0,21.12-1.54,30.97-7.35,9.73,5.61,19.42,7.1,30.8,7.1,17.43,0,33.07-4.1,46.91-18.2,8.46-8.72,18.71-24.61,18.71-49.22,0-17.69-6.15-30.51-15.12-39.22-11.02-10.77-27.69-15.64-45.12-12.82l15.38-37.17h54.86ZM109.61,97.94c5.9-5.9,12.82-7.95,21.28-7.95,6.15,0,14.1,1.03,20.25,7.18,6.41,6.15,7.69,14.1,7.69,20.25,0,11.28-4.1,19.23-9.23,24.1-5.64,5.38-14.1,8.2-22.3,8.2-10.25,0-16.66-4.1-20.25-7.95-3.08-3.33-7.18-9.23-7.18-19.23s4.1-19.23,9.74-24.61ZM94.48,223.81c-4.87-4.87-7.95-12.56-7.95-21.79,0-10.77,4.36-19.74,10-25.89,7.18-7.69,15.89-10,25.38-10,11.28,0,18.2,3.59,22.05,6.92,2.82,2.31,9.48,9.23,9.48,22.82,0,8.39-2.5,16.46-6.63,22.53-3.94-4.57-6.24-9.02-6.97-10.48l-16.41,10.77c2.22,3.7,5.03,7.57,8.29,11.22-5.33,1.84-10.62,2.11-14.95,2.11-7.43,0-15.89-1.79-22.3-8.2ZM184.71,146.13c9.23,0,20,2.56,27.43,8.97,9.74,8.2,12.05,19.48,12.05,27.69,0,14.61-4.61,28.2-12.82,36.66-6.15,6.41-16.66,12.56-33.58,12.56-5.37,0-10.84-.73-16.22-2.9,5.99-7.88,11.1-19.37,11.1-35.81,0-7.95-1.79-15.89-6.66-23.07-1.79-2.56-6.41-8.46-14.61-12.31,4.41-1.91,7.97-4.31,10.88-6.85,7-3.18,14.66-4.94,22.44-4.94Z"/>
  <path class="cls-1" d="M161.13,322.26c-43.04,0-83.5-16.76-113.94-47.19C16.76,244.63,0,204.17,0,161.13S16.76,77.63,47.19,47.19C77.63,16.76,118.09,0,161.13,0s83.5,16.76,113.94,47.19c30.43,30.43,47.19,70.9,47.19,113.94s-16.76,83.5-47.19,113.94c-30.43,30.43-70.9,47.19-113.94,47.19ZM161.13,12.63C79.25,12.63,12.63,79.25,12.63,161.13s66.62,148.5,148.5,148.5,148.5-66.62,148.5-148.5S243.01,12.63,161.13,12.63Z"/>
</svg>