<?xml version="1.0" encoding="UTF-8"?>
<svg id="_レイヤー_1" data-name="レイヤー_1" xmlns="http://www.w3.org/2000/svg" version="1.1" viewBox="0 0 512 512">
  <defs>
    <style>
      .st0 {
        fill: #2c3e50;
      }
    </style>
  </defs>
  <g>
    <path class="st0" d="M393.99,153.56l3.08-26.14h-101.87l-17.56,41.22c-2.17-8.87-6.42-18.49-14.72-27-14.99-15.38-34.6-18.45-49.59-18.45-18.07,0-38.44,4.23-54.97,21.14-8.46,8.84-20.76,26.91-20.76,56.89,0,9.61,1.54,19.99,7.69,30.37,3.46,6.15,9.23,12.69,16.91,17.68-12.69,4.23-25.37,12.69-33.44,23.45-9.23,12.3-13.84,30.75-13.84,45.36,0,18.45,5.77,37.67,18.45,50.74,15.76,16.53,36.9,19.99,54.59,19.99,15.84,0,31.68-2.31,46.44-11.03,14.59,8.41,29.12,10.64,46.18,10.64,26.14,0,49.59-6.15,70.35-27.29,12.69-13.07,28.06-36.9,28.06-73.8,0-26.53-9.23-45.74-22.68-58.82-16.53-16.15-41.52-23.45-67.66-19.22l23.07-55.74h82.26ZM178.74,161.24c8.84-8.84,19.22-11.92,31.91-11.92,9.23,0,21.14,1.54,30.37,10.76,9.61,9.23,11.53,21.14,11.53,30.37,0,16.91-6.15,28.83-13.84,36.13-8.46,8.07-21.14,12.3-33.44,12.3-15.38,0-24.99-6.15-30.37-11.92-4.61-5-10.76-13.84-10.76-28.83s6.15-28.83,14.61-36.9ZM156.06,349.99c-7.3-7.3-11.92-18.84-11.92-32.67,0-16.15,6.53-29.6,14.99-38.83,10.76-11.53,23.83-14.99,38.06-14.99,16.92,0,27.29,5.38,33.06,10.38,4.23,3.46,14.22,13.84,14.22,34.21,0,12.58-3.75,24.68-9.94,33.78-5.91-6.85-9.35-13.52-10.45-15.71l-24.6,16.15c3.33,5.54,7.55,11.35,12.43,16.82-7.99,2.76-15.92,3.17-22.41,3.17-11.15,0-23.83-2.69-33.44-12.3ZM291.36,233.51c13.84,0,29.98,3.85,41.13,13.45,14.61,12.3,18.07,29.22,18.07,41.52,0,21.91-6.92,42.28-19.22,54.97-9.23,9.61-24.99,18.84-50.36,18.84-8.05,0-16.26-1.09-24.32-4.34,8.98-11.81,16.65-29.04,16.65-53.7,0-11.92-2.69-23.83-9.99-34.6-2.69-3.84-9.61-12.69-21.91-18.45,6.61-2.86,11.96-6.46,16.31-10.27,10.49-4.78,21.98-7.41,33.65-7.41Z"/>
    <path class="st0" d="M187.97,389.67c-24.15,0-42.21-6.62-55.2-20.25-11.87-12.23-18.69-30.94-18.69-51.33,0-16.52,5.5-34.53,14.01-45.87,7.49-9.98,19.44-18.56,32.23-23.18-6.57-4.57-12.13-10.56-15.77-17.02-5.32-8.97-7.8-18.76-7.8-30.79,0-30.91,13.15-49.28,20.99-57.48,14.08-14.41,32.26-21.4,55.59-21.4,21.21,0,38.1,6.29,50.2,18.71,6.74,6.91,11.54,15.3,14.3,24.98l16.81-39.46h103.39l-3.28,27.84h-82.45l-22.27,53.82c25.51-3.69,50.42,3.6,66.89,19.68,15,14.58,22.94,35.13,22.94,59.43,0,37.39-15.39,61.1-28.3,74.4-18.71,19.06-40.59,27.55-70.96,27.55-19.38,0-33.23-3.15-46.18-10.51-12.79,7.43-27.57,10.89-46.45,10.89ZM213.34,124.04c-22.84,0-40.63,6.83-54.36,20.89-7.66,8.01-20.52,25.98-20.52,56.3,0,11.71,2.41,21.22,7.57,29.93,3.77,6.7,9.68,12.87,16.65,17.4l1.48.96-1.68.56c-13.08,4.36-25.43,13.02-33.03,23.15-8.3,11.07-13.67,28.67-13.67,44.85,0,19.95,6.64,38.23,18.21,50.15,12.66,13.28,30.31,19.73,53.97,19.73,18.78,0,33.4-3.47,46.01-10.91l.43-.25.43.25c12.97,7.48,26.22,10.53,45.76,10.53,29.87,0,51.38-8.34,69.74-27.04,12.69-13.07,27.82-36.39,27.82-73.21,0-24.17-7.54-43.75-22.42-58.2-16.4-16.02-41.42-23.12-66.93-18.99l-1.51.24,23.87-57.68h82.08l2.87-24.44h-100.35l-18.34,43.06-.61-2.49c-2.55-10.4-7.42-19.35-14.5-26.61-11.77-12.07-28.25-18.19-48.98-18.19ZM280.98,363.14c-9.22,0-17.29-1.44-24.64-4.4l-1.04-.42.68-.89c10.93-14.37,16.48-32.27,16.48-53.19,0-13.01-3.31-24.49-9.85-34.12-3.82-5.46-10.67-13.05-21.57-18.16l-1.71-.8,1.74-.75c5.92-2.56,11.33-5.97,16.08-10.13l.21-.13c10.76-4.9,22.52-7.49,34-7.49,16.42,0,31.62,4.98,41.69,13.66,15.98,13.46,18.36,32.19,18.36,42.16,0,22.56-7.09,42.81-19.46,55.56-8.36,8.71-24,19.1-50.97,19.1ZM258.01,357.56c6.87,2.61,14.4,3.87,22.97,3.87,26.37,0,41.61-10.1,49.75-18.58,12.06-12.44,18.98-32.26,18.98-54.38,0-9.67-2.31-27.85-17.76-40.87-9.63-8.3-24.8-13.25-40.58-13.25-11.2,0-22.68,2.52-33.18,7.28-4.41,3.85-9.37,7.07-14.77,9.58,10.28,5.24,16.85,12.57,20.6,17.93,6.74,9.93,10.15,21.73,10.15,35.09,0,20.87-5.43,38.8-16.15,53.32ZM189.51,363.14c-14.26,0-25.72-4.22-34.05-12.55-7.85-7.84-12.17-19.66-12.17-33.28,0-14.71,5.4-28.7,15.22-39.4,9.72-10.42,22.02-15.27,38.68-15.27,17.69,0,28.05,5.76,33.62,10.59,4.35,3.56,14.52,14.11,14.52,34.86,0,12.35-3.68,24.84-10.09,34.26l-.62.92-.73-.84c-3.87-4.49-7.36-9.67-10.13-15.03l-23.12,15.17c3.36,5.5,7.47,11.02,11.91,15.99l.85.96-1.21.42c-8.26,2.85-16.46,3.21-22.69,3.21ZM197.19,264.35c-16.16,0-28.06,4.68-37.43,14.72-5.51,6.01-14.76,18.98-14.76,38.24,0,12.97,4.25,24.66,11.67,32.07,8,8,19.05,12.05,32.84,12.05,5.78,0,13.31-.32,20.92-2.72-4.37-5.01-8.39-10.51-11.67-15.98l-.42-.7,26.09-17.12.43.86c2.6,5.2,5.91,10.25,9.6,14.68,5.84-9.03,9.17-20.75,9.17-32.36,0-20.01-9.73-30.13-13.91-33.55-5.37-4.66-15.36-10.19-32.52-10.19ZM205.26,239.75c-16.21,0-25.8-6.63-30.99-12.19-7.4-8.01-10.99-17.63-10.99-29.41,0-14.6,5.56-28.62,14.86-37.51,8.41-8.41,18.44-12.16,32.5-12.16s23.56,3.6,30.97,11.01c7.81,7.5,11.78,17.93,11.78,30.97,0,15.06-5.01,28.11-14.1,36.75-8.22,7.85-20.95,12.54-34.03,12.54ZM210.65,150.18c-13.58,0-23.23,3.6-31.3,11.67h-.01c-8.98,8.59-14.34,22.15-14.34,36.3,0,11.33,3.45,20.57,10.54,28.25,4.96,5.31,14.14,11.64,29.74,11.64,12.66,0,24.94-4.51,32.86-12.07,8.75-8.32,13.57-20.93,13.57-35.52,0-12.56-3.79-22.57-11.27-29.75-9.44-9.44-21.51-10.53-29.78-10.53Z"/>
  </g>
  <g>
    <path class="st0" d="M256,497.61c-64.54,0-125.21-25.13-170.85-70.77-45.63-45.63-70.77-106.31-70.77-170.85s25.13-125.21,70.77-170.85C130.79,39.52,191.46,14.39,256,14.39s125.21,25.13,170.85,70.77c45.64,45.63,70.77,106.31,70.77,170.85s-25.13,125.21-70.77,170.85c-45.63,45.64-106.31,70.77-170.85,70.77ZM256,33.33c-122.78,0-222.67,99.89-222.67,222.67s99.89,222.67,222.67,222.67,222.67-99.89,222.67-222.67S378.78,33.33,256,33.33Z"/>
    <path class="st0" d="M256,498.47c-64.77,0-125.66-25.22-171.45-71.02-45.8-45.8-71.02-106.69-71.02-171.45s25.22-125.65,71.02-171.45C130.35,38.75,191.23,13.53,256,13.53s125.65,25.22,171.45,71.02c45.8,45.8,71.02,106.68,71.02,171.45s-25.22,125.65-71.02,171.45c-45.79,45.8-106.68,71.02-171.45,71.02ZM256,15.24c-64.31,0-124.77,25.04-170.24,70.52C40.28,131.23,15.24,191.69,15.24,256s25.04,124.77,70.52,170.24c45.47,45.47,105.93,70.52,170.24,70.52s124.77-25.04,170.24-70.52c45.47-45.47,70.52-105.94,70.52-170.24s-25.04-124.77-70.52-170.24C380.77,40.28,320.31,15.24,256,15.24ZM256,479.53c-123.25,0-223.53-100.27-223.53-223.53S132.75,32.47,256,32.47s223.53,100.27,223.53,223.53-100.27,223.53-223.53,223.53ZM256,34.18c-122.31,0-221.82,99.51-221.82,221.82s99.51,221.82,221.82,221.82,221.82-99.51,221.82-221.82S378.31,34.18,256,34.18Z"/>
  </g>
</svg>
