<?xml version="1.0" encoding="UTF-8"?>
<svg id="_レイヤー_1" data-name="レイヤー 1" xmlns="http://www.w3.org/2000/svg" viewBox="0 0 433.75 433.75">
  <defs>
    <style>
      .cls-1 {
        fill: #1a1a1a;
      }
    </style>
  </defs>
  <path class="cls-1" d="M340.74,124.92l2.76-23.46h-91.44l-15.76,37c-1.95-7.96-5.76-16.6-13.21-24.24-13.46-13.8-31.05-16.56-44.51-16.56-16.22,0-34.5,3.8-49.34,18.98-7.59,7.94-18.63,24.15-18.63,51.07,0,8.63,1.38,17.94,6.9,27.26,3.1,5.52,8.28,11.39,15.18,15.87-11.39,3.8-22.77,11.39-30.02,21.05-8.28,11.04-12.42,27.6-12.42,40.72,0,16.56,5.18,33.81,16.56,45.55,14.15,14.84,33.12,17.94,49,17.94,14.22,0,28.43-2.08,41.69-9.9,13.09,7.55,26.14,9.55,41.45,9.55,23.46,0,44.51-5.52,63.14-24.5,11.39-11.73,25.19-33.12,25.19-66.25,0-23.81-8.28-41.06-20.36-52.79-14.84-14.49-37.27-21.05-60.73-17.25l20.7-50.03h73.84ZM147.53,131.82c7.94-7.94,17.25-10.7,28.64-10.7,8.28,0,18.98,1.38,27.26,9.66,8.63,8.28,10.35,18.98,10.35,27.26,0,15.18-5.52,25.88-12.42,32.43-7.59,7.25-18.98,11.04-30.02,11.04-13.8,0-22.43-5.52-27.26-10.7-4.14-4.49-9.66-12.42-9.66-25.88s5.52-25.88,13.11-33.12ZM127.17,301.24c-6.56-6.56-10.7-16.91-10.7-29.33,0-14.49,5.87-26.57,13.46-34.85,9.66-10.35,21.39-13.46,34.16-13.46,15.18,0,24.5,4.83,29.68,9.32,3.8,3.11,12.77,12.42,12.77,30.71,0,11.29-3.36,22.15-8.92,30.32-5.3-6.15-8.4-12.14-9.38-14.1l-22.08,14.49c2.98,4.97,6.77,10.18,11.16,15.1-7.17,2.47-14.29,2.84-20.12,2.84-10.01,0-21.39-2.42-30.02-11.04ZM248.61,196.69c12.42,0,26.91,3.45,36.92,12.08,13.11,11.04,16.22,26.23,16.22,37.27,0,19.67-6.21,37.95-17.25,49.34-8.28,8.63-22.43,16.91-45.2,16.91-7.23,0-14.59-.98-21.83-3.9,8.06-10.6,14.95-26.07,14.95-48.21,0-10.7-2.42-21.39-8.97-31.06-2.42-3.45-8.63-11.39-19.67-16.56,5.93-2.56,10.73-5.8,14.64-9.22,9.42-4.29,19.73-6.65,30.21-6.65Z"/>
  <path class="cls-1" d="M216.88,433.75c-57.93,0-112.39-22.56-153.35-63.52C22.56,329.27,0,274.8,0,216.88S22.56,104.48,63.52,63.52C104.48,22.56,158.95,0,216.88,0s112.39,22.56,153.35,63.52c40.96,40.96,63.52,95.42,63.52,153.35s-22.56,112.39-63.52,153.35c-40.96,40.96-95.42,63.52-153.35,63.52ZM216.88,17C106.66,17,17,106.66,17,216.88s89.66,199.88,199.88,199.88,199.88-89.66,199.88-199.88S327.09,17,216.88,17Z"/>
</svg>